<svg width="401" height="298" viewBox="0 0 401 298" fill="none" xmlns="http://www.w3.org/2000/svg">
<path d="M359.599 162.772C359.599 206.751 342.151 246.664 313.8 275.957H79.8536C51.5021 246.669 34.0546 206.756 34.0546 162.772C34.0546 72.8775 106.932 0 196.827 0C286.721 0 359.599 72.8824 359.599 162.772Z" fill="#9342FF"/>
<path d="M374.254 286.551C366.628 287.719 359.002 288 351.382 288.142C343.756 288.305 336.13 288.218 328.504 288.131L317.065 288.06H305.626H54.0396H42.6006L36.8824 288.114L31.1641 288.207C27.3527 288.257 23.5397 288.184 19.7251 287.991C17.8198 287.884 15.9121 287.734 14.0068 287.499C12.0852 287.286 10.1763 286.97 8.28856 286.552C8.11885 286.512 7.96755 286.416 7.85925 286.28C7.75095 286.143 7.69202 285.974 7.69202 285.8C7.69202 285.625 7.75095 285.456 7.85925 285.32C7.96755 285.183 8.11885 285.087 8.28856 285.048C10.1763 284.63 12.0852 284.314 14.0068 284.1C15.9133 283.864 17.8198 283.714 19.7251 283.608C23.5373 283.42 27.3503 283.348 31.1641 283.393L36.8824 283.487L42.6006 283.541H54.0396H305.637H317.076L328.515 283.469C336.141 283.382 343.767 283.296 351.393 283.458C359.019 283.601 366.645 283.881 374.265 285.05C374.444 285.078 374.608 285.169 374.726 285.307C374.844 285.445 374.908 285.621 374.908 285.802C374.908 285.984 374.844 286.159 374.726 286.297C374.608 286.435 374.444 286.526 374.265 286.554L374.254 286.551Z" fill="#000072"/>
<g opacity="0.3">
<path opacity="0.3" d="M192.829 297.088C285.385 297.088 360.417 293.354 360.417 288.749C360.417 284.143 285.385 280.409 192.829 280.409C100.273 280.409 25.2416 284.143 25.2416 288.749C25.2416 293.354 100.273 297.088 192.829 297.088Z" fill="#000072"/>
</g>
<path d="M397.789 163.038C396.422 172.532 393.406 182.931 388.413 193.345C385.535 199.352 382.138 205.096 378.259 210.511C372.896 218.012 366.668 224.856 359.703 230.9C358.219 232.192 356.689 233.459 355.112 234.701C349.531 239.098 341.307 237.213 338.113 230.862C337.075 228.794 336.697 226.456 337.031 224.166C337.364 221.876 338.393 219.743 339.978 218.057C343.689 214.121 348.682 207.824 353.333 198.722C356.299 192.924 359.123 185.992 361.382 177.804C363.564 169.922 365.227 160.883 365.981 150.574C366.242 147.151 366.393 143.584 366.434 139.873C366.434 139.873 366.211 120.597 384.585 122.53C395.205 123.658 400.985 140.884 397.789 163.038Z" fill="#726789"/>
<path d="M397.789 163.038C396.423 172.532 393.407 182.93 388.413 193.345C383.38 185.26 376.419 180.405 367.226 178.539C365.299 178.15 363.346 177.903 361.382 177.801C363.564 169.92 365.227 160.88 365.981 150.572C367.681 150.739 369.452 150.979 371.27 151.31C381.338 153.119 390.26 157.088 397.789 163.038Z" fill="#504563"/>
<path d="M378.259 210.511C372.896 218.012 366.668 224.856 359.703 230.901C353.087 225.543 343.424 224.628 336.964 224.716C337.201 222.223 338.261 219.88 339.978 218.057C343.689 214.121 348.682 207.825 353.333 198.723C363.193 200.731 371.627 204.753 378.259 210.511Z" fill="#504563"/>
<g opacity="0.3">
<path opacity="0.3" d="M384.585 122.538C383.107 122.374 381.616 122.361 380.136 122.501C386.799 128.321 389.894 142.757 387.365 160.289C385.998 169.783 382.983 180.181 377.99 190.596C375.111 196.603 371.713 202.347 367.835 207.762C362.472 215.263 356.244 222.107 349.28 228.151C347.795 229.442 346.265 230.709 344.689 231.952C343.444 232.935 342.003 233.64 340.464 234.019C344.377 237.709 350.605 238.252 355.112 234.701C356.689 233.456 358.22 232.19 359.703 230.9C366.667 224.856 372.896 218.012 378.259 210.511C382.138 205.096 385.535 199.352 388.413 193.345C393.406 182.931 396.422 172.532 397.789 163.038C400.984 140.884 395.205 123.658 384.585 122.538Z" fill="#000072"/>
</g>
<g opacity="0.6">
<path opacity="0.6" d="M344.074 230.377C343.035 228.308 342.656 225.971 342.99 223.68C343.323 221.39 344.353 219.257 345.938 217.571C349.649 213.635 354.643 207.339 359.294 198.235C362.258 192.438 365.082 185.506 367.342 177.318C369.525 169.436 371.187 160.397 371.942 150.088C372.203 146.665 372.353 143.098 372.394 139.387C372.394 139.387 372.242 125.406 383.553 122.46C366.232 121.353 366.434 139.873 366.434 139.873C366.395 143.584 366.244 147.151 365.981 150.574C365.227 160.883 363.564 169.922 361.382 177.804C359.123 185.992 356.299 192.924 353.333 198.723C348.683 207.825 343.689 214.125 339.978 218.057C338.237 219.908 337.172 222.292 336.954 224.824C336.736 227.355 337.378 229.887 338.776 232.008C340.175 234.13 342.248 235.718 344.66 236.516C347.073 237.313 349.684 237.274 352.071 236.405C350.364 236.084 348.754 235.373 347.366 234.328C345.979 233.282 344.852 231.93 344.074 230.377Z" fill="white"/>
</g>
<path d="M348.224 238.84C345.804 238.839 343.432 238.167 341.372 236.898C339.312 235.629 337.644 233.813 336.555 231.652C335.359 229.263 334.924 226.564 335.309 223.921C335.695 221.277 336.881 218.815 338.71 216.866C348.204 206.791 364.206 183.389 364.691 139.86C364.691 139.508 364.65 130.243 370.768 124.67C374.257 121.494 378.971 120.196 384.769 120.806C391.004 121.462 395.862 126.754 398.446 135.707C404.999 158.406 396.223 204.554 356.194 236.075C353.924 237.867 351.116 238.842 348.224 238.84ZM339.67 230.08C340.306 231.35 341.217 232.461 342.337 233.334C343.458 234.206 344.758 234.817 346.145 235.123C347.51 235.432 348.926 235.431 350.29 235.122C351.655 234.813 352.933 234.203 354.032 233.337C375.864 216.142 386.357 195.833 391.314 181.826C397.111 165.445 398.522 148.567 395.089 136.675C392.924 129.172 389.13 124.775 384.402 124.277C379.64 123.775 375.849 124.769 373.132 127.239C368.172 131.739 368.178 139.785 368.179 139.861C367.681 184.614 351.092 208.815 341.242 219.26C339.904 220.686 339.036 222.489 338.754 224.424C338.472 226.36 338.79 228.335 339.665 230.084L339.67 230.08Z" fill="#000072"/>
<path d="M358.233 260.205C357.594 279.436 343.633 285.205 343.633 285.205H235.639C187.405 285.205 187.731 272.026 187.731 272.026H153.863C142.713 264.646 140.56 254.154 142.073 244.117C142.353 242.292 142.737 240.486 143.223 238.705C145.068 231.971 148.18 225.759 150.831 221.263C151.046 220.893 151.287 220.537 151.55 220.199C152.867 218.449 154.671 217.125 156.736 216.393C158.801 215.662 161.036 215.554 163.162 216.085C235.953 234.178 273.326 201.098 287.884 182.592C287.882 182.588 287.882 182.584 287.884 182.58C288.406 181.916 288.898 181.27 289.366 180.643C292.281 176.719 298.123 176.436 301.266 180.181C301.469 180.427 301.678 180.667 301.881 180.901C302.053 181.098 302.225 181.288 302.398 181.479C304.376 183.663 306.523 185.689 308.818 187.537C313.178 191.079 317.84 193.994 322.57 197.235C324.796 198.761 327.034 200.353 329.267 202.125C333.978 205.852 338.646 210.341 343.043 216.522C344.396 218.422 345.724 220.482 347.016 222.727C349.064 226.299 350.88 229.998 352.452 233.803C352.803 234.64 353.135 235.47 353.449 236.282C355.109 240.574 356.278 244.517 357.04 248.127C357.458 250.076 357.754 251.94 357.95 253.692C358.201 255.854 358.296 258.03 358.233 260.205Z" fill="#726789"/>
<path d="M358.233 260.205C357.594 279.436 343.633 285.205 343.633 285.205H235.639C187.405 285.205 187.731 272.026 187.731 272.026H153.863C142.713 264.646 140.56 254.154 142.073 244.117C142.073 244.117 163.844 272.45 184.969 251.724C184.969 251.724 175.977 244.199 166.842 241.128C166.006 240.848 166.061 239.652 166.912 239.426C169.046 238.859 171.15 237.841 170.8 236.06C170.16 232.807 157.583 231.374 151.55 220.206C152.691 218.694 154.196 217.497 155.926 216.727C157.656 215.957 159.553 215.638 161.44 215.802C179.25 220.587 211.728 236.06 211.728 236.06C211.728 236.06 185.536 251.189 204.514 256.651C215.718 259.873 224.563 258.619 228.423 257.389C229.822 256.946 231.314 256.881 232.746 257.199C241.552 259.119 272.933 264.579 286.408 248.496C286.408 248.496 327.139 276.534 357.053 248.127C357.471 250.076 357.766 251.94 357.963 253.692C358.21 255.854 358.3 258.031 358.233 260.205Z" fill="white"/>
<path d="M182.928 250.482C182.928 250.482 175.425 249.157 168.329 251.173C168.229 251.203 168.122 251.196 168.027 251.154C167.933 251.111 167.856 251.037 167.811 250.943C167.767 250.849 167.757 250.742 167.784 250.642C167.812 250.542 167.874 250.454 167.96 250.396C170.157 248.873 174.14 246.829 179.354 247.209L182.928 250.482Z" fill="#504563"/>
<path d="M173.885 244.604C173.885 244.604 167.181 243.419 160.952 245.284C160.878 245.305 160.799 245.299 160.729 245.267C160.659 245.236 160.602 245.181 160.568 245.112C160.534 245.043 160.526 244.964 160.544 244.889C160.562 244.814 160.605 244.748 160.667 244.702C162.512 243.371 166.068 241.426 170.788 241.768L173.885 244.604Z" fill="#504563"/>
<path d="M197.506 243.867C197.506 243.867 207.665 244.851 214.52 250.572C214.579 250.624 214.655 250.654 214.734 250.656C214.813 250.658 214.89 250.632 214.951 250.583C215.013 250.534 215.056 250.465 215.072 250.388C215.089 250.311 215.077 250.231 215.04 250.161C213.652 247.59 210.167 242.491 203.394 239.942L197.506 243.867Z" fill="#504563"/>
<path d="M308.824 187.543C308.535 187.961 308.246 188.373 307.945 188.785C305.823 191.707 303.517 194.492 300.903 196.983C298.326 199.53 295.45 201.755 292.336 203.608C292.275 203.646 292.203 203.664 292.13 203.659C292.058 203.654 291.989 203.626 291.934 203.58C291.878 203.534 291.838 203.471 291.82 203.401C291.802 203.331 291.806 203.257 291.832 203.19V203.171C292.158 202.31 292.521 201.492 292.884 200.681C293.246 199.869 293.64 199.1 293.978 198.282L296.149 193.584C297.607 190.49 298.99 187.434 300.356 184.395C300.879 183.234 301.387 182.071 301.881 180.908C304 183.316 306.323 185.536 308.824 187.543Z" fill="#504563"/>
<path d="M329.273 202.132C327.627 204.266 325.824 206.274 323.88 208.141C321.301 210.686 318.425 212.91 315.313 214.764C315.233 214.811 315.137 214.825 315.047 214.802C314.957 214.779 314.88 214.721 314.833 214.641C314.806 214.596 314.79 214.545 314.786 214.493C314.782 214.441 314.789 214.389 314.808 214.34L314.814 214.321C315.14 213.46 315.503 212.649 315.866 211.837C316.229 211.025 316.623 210.25 316.961 209.438L319.138 204.733C320.319 202.218 321.456 199.721 322.576 197.243C324.802 198.767 327.041 200.36 329.273 202.132Z" fill="#504563"/>
<path d="M347.028 222.733C346.708 223.053 346.388 223.373 346.056 223.687C343.478 226.231 340.601 228.455 337.489 230.31C337.409 230.357 337.314 230.371 337.224 230.348C337.134 230.325 337.057 230.267 337.01 230.187C336.983 230.142 336.967 230.091 336.963 230.039C336.959 229.987 336.966 229.935 336.985 229.886L336.991 229.867C337.323 229.006 337.686 228.195 338.043 227.383C338.4 226.571 338.806 225.796 339.15 224.984L341.321 220.279C341.911 219.025 342.491 217.774 343.061 216.528C344.408 218.428 345.737 220.489 347.028 222.733Z" fill="#504563"/>
<path d="M208.455 236.158C208.455 236.158 218.615 237.142 225.47 242.862C225.529 242.914 225.604 242.944 225.683 242.946C225.762 242.948 225.839 242.922 225.901 242.874C225.963 242.825 226.005 242.756 226.022 242.679C226.038 242.601 226.027 242.521 225.99 242.451C224.601 239.882 221.117 234.782 214.343 232.234L208.455 236.158Z" fill="#504563"/>
<g opacity="0.3">
<path opacity="0.3" d="M150.892 217.731C150.892 217.731 151.045 225.807 168.496 233.7C170.854 234.766 170.492 238.209 167.963 238.761L167.74 238.811C166.534 239.079 166.475 240.779 167.658 241.132C173.323 242.83 182.682 247.224 188.524 258.36C188.524 258.36 193.158 242.258 211.729 236.057C211.729 236.057 175.265 237.631 150.892 217.731Z" fill="#000072"/>
</g>
<g opacity="0.3">
<path opacity="0.3" d="M304.413 197.865C295.503 219.379 260.479 227.347 260.479 227.347C236.759 241.978 207.829 237.587 207.829 237.587C264.809 220.773 282.754 193.651 287.884 182.593C287.882 182.589 287.882 182.585 287.884 182.581C288.406 181.917 288.898 181.271 289.366 180.644C292.281 176.72 298.123 176.437 301.266 180.183C301.469 180.429 301.678 180.669 301.881 180.902C302.053 181.099 302.225 181.29 302.398 181.48C301.596 186.91 303.422 192.403 304.421 194.887C304.809 195.843 304.806 196.912 304.413 197.865Z" fill="#000072"/>
</g>
<g opacity="0.3">
<path opacity="0.3" d="M358.233 260.205C357.594 279.436 343.633 285.205 343.633 285.205H235.639C187.405 285.205 187.731 272.026 187.731 272.026H153.863C142.713 264.646 140.56 254.154 142.073 244.117C142.353 242.292 142.737 240.486 143.223 238.705L143.451 238.68C143.451 238.68 146.618 274.787 188.524 262.007C188.524 262.007 199.114 269.486 228.733 262.868C229.885 262.613 231.073 262.557 232.244 262.702C238.222 263.409 258.382 264.928 274.071 255.771C277.139 253.981 279.243 250.937 280.048 247.481C282.176 238.342 290.479 219.148 322.594 221.792C320.854 221.743 292.976 221.368 285.153 252.776C285.153 252.776 292.367 252.118 305.011 260.15C304.532 260.052 288.837 256.798 277.053 263.742C274.987 264.959 274.962 267.973 277.004 269.233C281.365 271.927 289.433 275.543 300.676 274.916C316.364 274.03 354.442 271.62 353.461 236.276C356.013 242.881 357.409 248.656 357.963 253.686C358.21 255.85 358.3 258.029 358.233 260.205Z" fill="#000072"/>
</g>
<g opacity="0.5">
<path opacity="0.5" d="M289.006 259.775C289.006 259.775 288.901 230.624 322.594 221.805C322.594 221.805 300.266 221.234 290.983 238.855C281.7 256.476 284.534 260.582 284.534 260.582L289.006 259.775Z" fill="white"/>
</g>
<path d="M182.636 269.952C182.621 269.945 182.605 269.94 182.588 269.936H182.614C182.634 269.94 182.654 269.943 182.674 269.944C182.729 269.953 182.785 269.957 182.84 269.958C182.963 269.969 183.087 269.969 183.209 269.958C183.332 269.958 183.448 269.909 183.578 269.901C183.691 269.85 183.811 269.824 183.928 269.778C184.388 269.588 184.828 269.183 185.211 268.612C185.996 267.479 186.464 265.792 186.699 264.074C186.748 263.636 186.832 263.213 186.856 262.76L186.929 261.407C186.937 261.187 186.963 260.947 186.958 260.743L186.941 260.139C186.955 259.732 186.856 259.337 186.818 258.933C186.561 257.334 185.881 255.776 184.945 254.33C183.019 251.453 180.19 248.995 177.086 246.983C173.982 244.938 170.669 243.133 167.273 241.331C167.243 241.315 167.218 241.288 167.205 241.256C167.192 241.224 167.191 241.188 167.202 241.155C167.212 241.122 167.235 241.093 167.264 241.075C167.294 241.056 167.329 241.049 167.363 241.054C169.287 241.346 171.178 241.827 173.008 242.49C173.93 242.801 174.827 243.181 175.728 243.561C176.614 243.969 177.502 244.385 178.363 244.857C180.109 245.801 181.774 246.887 183.341 248.105C184.917 249.343 186.416 250.747 187.646 252.45C188.876 254.154 189.885 256.096 190.34 258.254C190.422 258.797 190.56 259.336 190.576 259.888L190.631 260.713C190.645 260.985 190.631 261.222 190.631 261.48L190.609 262.994C190.6 263.498 190.529 264.017 190.486 264.529C190.26 266.573 189.897 268.723 188.624 270.83C188.338 271.358 187.886 271.852 187.456 272.332C187.205 272.556 186.948 272.777 186.685 272.992C186.406 273.192 186.097 273.361 185.798 273.543C185.486 273.701 185.15 273.826 184.822 273.954C184.482 274.056 184.136 274.136 183.786 274.193C183.434 274.249 183.078 274.274 182.722 274.268C182.546 274.268 182.353 274.246 182.175 274.232C182.088 274.232 181.982 274.209 181.882 274.192L181.731 274.162L181.508 274.107C181.236 274.032 180.981 273.904 180.757 273.731C180.534 273.557 180.348 273.342 180.208 273.096C180.068 272.851 179.978 272.58 179.943 272.3C179.908 272.019 179.928 271.735 180.003 271.462C180.077 271.19 180.205 270.935 180.379 270.711C180.552 270.488 180.768 270.302 181.013 270.162C181.259 270.022 181.529 269.932 181.81 269.897C182.09 269.862 182.375 269.882 182.647 269.957L182.636 269.952Z" fill="#000072"/>
<path d="M201.934 275.398C187.921 275.398 185.329 271.883 184.857 270.372L188.971 269.103C188.937 268.978 188.884 268.86 188.814 268.751C188.832 268.775 190.75 271.088 201.934 271.088C215.519 271.088 230.32 268.607 230.47 268.582C230.653 268.551 230.839 268.544 231.024 268.561C231.364 268.591 265.145 271.44 282.984 254.539L285.946 257.664C267.373 275.26 234.557 273.162 230.916 272.872C228.754 273.232 215.031 275.398 201.934 275.398Z" fill="#000072"/>
<path d="M186.823 258.048C186.873 257.779 186.923 257.6 186.972 257.392C187.021 257.184 187.079 257 187.134 256.806C187.241 256.414 187.37 256.043 187.503 255.673C187.636 255.303 187.77 254.935 187.923 254.574C188.075 254.214 188.208 253.844 188.385 253.499C188.723 252.799 189.052 252.093 189.45 251.429L190.026 250.421L190.666 249.453C192.38 246.878 194.479 244.588 196.791 242.565C197.993 241.613 199.169 240.616 200.471 239.811L201.427 239.174C201.739 238.953 202.065 238.753 202.403 238.576L204.407 237.469C205.072 237.098 205.757 236.765 206.459 236.471L208.541 235.538C209.954 234.993 211.39 234.512 212.817 233.998L214.053 238.122C212.732 238.566 211.394 238.983 210.081 239.445L208.159 240.253C207.511 240.503 206.879 240.79 206.266 241.114L204.421 242.074C204.11 242.226 203.811 242.4 203.524 242.593L202.651 243.146C201.451 243.843 200.389 244.713 199.284 245.538C197.178 247.299 195.266 249.288 193.698 251.523L193.111 252.362L192.584 253.236C192.215 253.812 191.92 254.421 191.609 255.023C191.443 255.321 191.329 255.638 191.186 255.943C191.043 256.248 190.913 256.558 190.803 256.874C190.694 257.191 190.566 257.499 190.474 257.809C190.426 257.964 190.368 258.124 190.332 258.27L190.226 258.676L186.823 258.048Z" fill="#000072"/>
<path d="M322.681 221.812C320.165 222.142 317.676 222.659 315.236 223.358C312.839 224.028 310.497 224.882 308.231 225.913C303.748 227.953 299.653 230.733 296.437 234.324C294.797 236.084 293.366 238.029 292.172 240.118L291.709 240.891L291.297 241.695C291.029 242.234 290.732 242.756 290.485 243.306C290.019 244.422 289.501 245.51 289.132 246.667C288.933 247.239 288.709 247.801 288.528 248.38L288.027 250.133L287.775 251.01L287.571 251.901L287.159 253.686C286.904 254.882 286.742 256.102 286.526 257.31L286.088 260.981L286.07 261.12C286.024 261.502 285.873 261.863 285.634 262.164C285.395 262.465 285.078 262.695 284.717 262.828C284.202 263.035 283.567 263.328 282.995 263.607C282.424 263.887 281.831 264.202 281.255 264.516C280.107 265.154 278.989 265.846 277.911 266.586C275.762 268.046 273.791 269.749 272.035 271.663C270.328 273.569 268.891 275.684 267.93 277.977C266.964 280.264 266.462 282.719 266.454 285.201V285.237C266.45 285.808 266.218 286.353 265.811 286.754C265.404 287.154 264.855 287.376 264.284 287.372C263.713 287.367 263.168 287.136 262.767 286.729C262.367 286.322 262.145 285.772 262.149 285.201C262.157 282.143 262.775 279.117 263.967 276.3C265.144 273.493 266.865 270.981 268.841 268.778C270.821 266.615 273.047 264.689 275.472 263.039C276.67 262.219 277.902 261.457 279.17 260.751C279.806 260.402 280.447 260.063 281.102 259.743C281.758 259.423 282.389 259.128 283.155 258.817L281.789 260.662C282.089 255.416 283.082 250.134 284.987 245.122C286.869 240.114 289.806 235.413 293.661 231.637C295.583 229.758 297.711 228.1 300.004 226.695C302.281 225.317 304.707 224.199 307.234 223.363C309.729 222.539 312.305 221.986 314.919 221.715C316.212 221.573 317.513 221.507 318.814 221.518C320.109 221.515 321.402 221.613 322.681 221.812Z" fill="#000072"/>
<path d="M283.014 258.881C283.349 258.732 283.55 258.658 283.804 258.566C284.057 258.473 284.283 258.409 284.522 258.332C284.997 258.195 285.468 258.06 285.939 257.963C286.41 257.866 286.882 257.761 287.353 257.685C287.824 257.609 288.297 257.544 288.768 257.488C290.637 257.286 292.519 257.245 294.395 257.365C295.323 257.439 296.248 257.507 297.161 257.66C298.079 257.769 298.981 257.974 299.88 258.161C300.779 258.348 301.656 258.63 302.533 258.878C303.394 259.171 304.255 259.484 305.102 259.819C305.176 259.854 305.236 259.913 305.273 259.986C305.309 260.059 305.321 260.143 305.305 260.223C305.289 260.303 305.247 260.376 305.186 260.43C305.124 260.484 305.046 260.515 304.965 260.52H304.944C304.04 260.509 303.154 260.443 302.267 260.418C301.378 260.418 300.503 260.357 299.625 260.382C297.875 260.369 296.142 260.459 294.433 260.596C292.745 260.758 291.067 261.019 289.409 261.376C288.593 261.562 287.784 261.76 287.005 262.002C286.609 262.112 286.23 262.248 285.855 262.379L285.312 262.588C285.146 262.649 284.933 262.739 284.861 262.774L284.807 262.798C284.291 263.04 283.699 263.068 283.163 262.874C282.626 262.681 282.188 262.282 281.945 261.766C281.702 261.25 281.674 260.658 281.867 260.121C282.06 259.584 282.459 259.146 282.975 258.903L283.014 258.881Z" fill="#000072"/>
<path d="M271.949 285.467C271.886 285.01 271.869 284.548 271.898 284.088C271.92 283.65 271.973 283.214 272.058 282.783C272.219 281.897 272.514 281.04 272.933 280.242C273.35 279.398 273.956 278.662 274.703 278.091C275.488 277.543 276.416 277.254 277.286 277.364C276.844 277.965 276.511 278.639 276.302 279.355C276.157 279.968 276.069 280.592 276.039 281.221C276.022 281.853 276.038 282.486 276.087 283.116L276.159 284.071C276.165 284.23 276.191 284.385 276.195 284.541C276.199 284.697 276.221 284.872 276.221 284.949L271.949 285.467Z" fill="#000072"/>
<path d="M282.638 285.722C282.53 285.47 282.454 285.206 282.411 284.936C282.377 284.695 282.365 284.451 282.376 284.207C282.408 283.721 282.482 283.237 282.597 282.763C282.81 281.803 283.173 280.883 283.673 280.037C284.18 279.206 284.873 278.503 285.697 277.985C286.478 277.462 287.372 277.247 288.191 277.124L288.381 277.604C287.782 278.131 287.243 278.637 286.93 279.26C286.603 279.821 286.411 280.45 286.371 281.098C286.314 281.723 286.356 282.352 286.494 282.964C286.555 283.273 286.66 283.579 286.74 283.873C286.778 284.019 286.806 284.166 286.826 284.316C286.837 284.446 286.857 284.636 286.806 284.685L282.638 285.722Z" fill="#000072"/>
<path d="M204.79 273.487C204.689 272.926 204.641 272.356 204.647 271.786C204.646 271.241 204.683 270.697 204.758 270.157C204.898 269.065 205.179 267.995 205.594 266.975C206.022 265.94 206.627 264.986 207.382 264.158C208.132 263.359 209.084 262.777 210.136 262.472C209.673 263.315 209.317 264.213 209.077 265.145C208.895 265.998 208.787 266.866 208.754 267.738C208.722 268.599 208.77 269.46 208.824 270.321L209.041 272.807L204.79 273.487Z" fill="#000072"/>
<path d="M194.796 273.355C194.692 272.713 194.641 272.063 194.643 271.412C194.634 271.097 194.643 270.783 194.666 270.47C194.688 270.156 194.699 269.844 194.739 269.531C194.801 268.904 194.902 268.281 195.042 267.666C195.114 267.358 195.177 267.051 195.261 266.743L195.55 265.833C195.956 264.611 196.553 263.462 197.319 262.428C198.133 261.419 199.138 260.555 200.303 260.099C199.852 261.152 199.505 262.246 199.268 263.366C199.081 264.411 198.953 265.465 198.884 266.524C198.841 267.58 198.85 268.637 198.892 269.692C198.913 270.22 198.937 270.749 198.973 271.273L199.063 272.781L194.796 273.355Z" fill="#000072"/>
<path d="M163.764 271.611C163.764 271.636 163.78 271.589 163.793 271.563C163.805 271.537 163.816 271.498 163.828 271.462L163.903 271.232C163.956 271.076 163.997 270.903 164.042 270.734C164.115 270.387 164.205 270.032 164.259 269.665C164.313 269.299 164.356 268.927 164.382 268.546C164.408 268.165 164.437 267.781 164.437 267.391C164.427 266.593 164.363 265.797 164.245 265.007C164.143 264.188 163.97 263.364 163.809 262.472C164.524 263.023 165.155 263.677 165.679 264.413C166.229 265.151 166.635 265.972 167.004 266.83C167.379 267.702 167.651 268.615 167.813 269.551C167.906 270.03 167.966 270.515 167.994 271.002C168.003 271.248 168.016 271.494 168.01 271.757C168.01 271.88 168.01 272.016 167.997 272.152L167.978 272.361C167.97 272.438 167.966 272.495 167.943 272.622L163.764 271.611Z" fill="#000072"/>
<path d="M175.345 271.6C175.447 271.302 175.577 270.889 175.68 270.52C175.784 270.151 175.901 269.754 175.999 269.365C176.097 268.976 176.191 268.584 176.272 268.19C176.353 267.797 176.443 267.401 176.518 267C176.647 266.197 176.734 265.388 176.776 264.577C176.819 263.721 176.804 262.864 176.731 262.011C177.399 262.651 177.936 263.416 178.309 264.263C178.673 265.113 178.952 265.997 179.144 266.901C179.349 267.8 179.485 268.713 179.55 269.632C179.588 270.091 179.619 270.552 179.616 271.015C179.626 271.495 179.609 271.975 179.565 272.454L175.345 271.6Z" fill="#000072"/>
<path d="M343.636 287.339H235.642C204.567 287.339 192.715 281.874 188.245 277.291C187.115 276.133 186.466 275.049 186.095 274.16H153.869C153.45 274.16 153.041 274.036 152.692 273.805C142.852 267.295 138.49 257.882 139.71 245.824C140.704 236 145.308 226.46 148.994 220.187C150.459 217.722 152.677 215.792 155.321 214.682C157.965 213.572 160.896 213.341 163.682 214.022C238.489 232.619 275.301 195.982 287.66 179.377C288.543 178.181 289.688 177.203 291.006 176.515C292.325 175.828 293.782 175.449 295.268 175.409C296.716 175.365 298.155 175.648 299.477 176.238C300.799 176.829 301.971 177.71 302.904 178.817C308.004 184.892 313.934 188.867 320.21 193.073C331.638 200.732 344.591 209.414 354.434 232.992C361.028 248.785 362.168 262.125 357.825 272.642C353.387 283.386 344.814 287.033 344.45 287.18C344.192 287.286 343.915 287.34 343.636 287.339ZM189.873 272.021C190.033 272.844 192.929 283.072 235.638 283.072H343.175C346.188 281.615 365.52 270.616 350.497 234.631C341.149 212.245 329.298 204.296 317.835 196.614C311.299 192.234 305.126 188.095 299.631 181.558C299.113 180.943 298.462 180.453 297.727 180.126C296.992 179.799 296.193 179.643 295.389 179.67C294.547 179.693 293.721 179.908 292.974 180.298C292.227 180.687 291.579 181.242 291.078 181.919C283.852 191.636 270.926 205.107 250.387 214.102C225.381 225.049 195.86 226.42 162.642 218.161C160.751 217.698 158.76 217.854 156.963 218.606C155.167 219.359 153.659 220.669 152.663 222.343C145.406 234.683 136.092 257.162 154.508 269.888H187.718C188.333 269.888 188.928 270.038 189.333 270.503C189.739 270.968 189.939 271.438 189.873 272.021Z" fill="#000072"/>
<path d="M152.153 273.071H34.688L17.4434 234.873L3.0401 202.973C0.395604 197.1 4.6883 190.447 11.1274 190.447H104.841C107.825 190.447 110.746 191.308 113.253 192.927C115.76 194.546 117.746 196.854 118.974 199.574L142.344 251.332L152.153 273.071Z" fill="#D0CFE5"/>
<g opacity="0.3">
<path opacity="0.3" d="M152.153 273.071H34.688L17.4434 234.873C38.9475 256.107 90.6223 268.249 142.344 251.337L152.153 273.071Z" fill="#000072"/>
</g>
<g opacity="0.5">
<path opacity="0.5" d="M6.82235 196.597H100.536C103.52 196.597 106.441 197.458 108.948 199.077C111.455 200.696 113.441 203.004 114.669 205.724L138.039 257.482L145.072 273.066H152.153L142.344 251.332L118.974 199.574C117.746 196.854 115.76 194.546 113.253 192.927C110.746 191.308 107.825 190.447 104.841 190.447H11.1274C6.57635 190.447 3.10529 193.762 2.38574 197.778C3.73393 196.998 5.265 196.591 6.82235 196.597Z" fill="white"/>
</g>
<path d="M71.7603 236.962C65.5537 236.504 55.1491 250.695 72.4884 249.898C89.8277 249.101 79.9238 237.565 71.7603 236.962Z" fill="#000072"/>
<path d="M60.9584 238.95C63.1342 238.95 64.8981 237.186 64.8981 235.01C64.8981 232.834 63.1342 231.07 60.9584 231.07C58.7825 231.07 57.0187 232.834 57.0187 235.01C57.0187 237.186 58.7825 238.95 60.9584 238.95Z" fill="#000072"/>
<path d="M81.567 238.397C83.7428 238.397 85.5067 236.634 85.5067 234.458C85.5067 232.282 83.7428 230.518 81.567 230.518C79.3912 230.518 77.6273 232.282 77.6273 234.458C77.6273 236.634 79.3912 238.397 81.567 238.397Z" fill="#000072"/>
<path d="M72.2659 233.364C74.8391 232.299 76.061 229.349 74.9952 226.775C73.9294 224.202 70.9794 222.98 68.4062 224.046C65.833 225.112 64.6111 228.062 65.6769 230.635C66.7428 233.208 69.6928 234.43 72.2659 233.364Z" fill="#000072"/>
<path d="M152.152 275.326H34.6868C34.2524 275.326 33.8272 275.2 33.4622 274.965C33.0972 274.729 32.8079 274.393 32.629 273.997L0.984797 203.9C0.220073 202.205 -0.107809 200.345 0.0311036 198.491C0.170017 196.637 0.771296 194.848 1.78001 193.286C2.78873 191.724 4.17273 190.44 5.80558 189.55C7.43843 188.661 9.26808 188.195 11.1274 188.195H104.841C108.259 188.198 111.604 189.186 114.476 191.04C117.347 192.894 119.624 195.536 121.034 198.65L154.208 272.14C154.364 272.484 154.43 272.861 154.402 273.237C154.374 273.613 154.252 273.976 154.047 274.293C153.843 274.61 153.562 274.87 153.231 275.051C152.9 275.231 152.529 275.326 152.152 275.326ZM36.1443 270.812H148.656L116.922 200.507C115.871 198.185 114.172 196.214 112.031 194.831C109.889 193.449 107.394 192.712 104.845 192.709H11.1274C10.0224 192.709 8.93501 192.986 7.96459 193.514C6.99418 194.043 6.17168 194.806 5.57224 195.734C4.97281 196.663 4.61555 197.726 4.53312 198.828C4.45069 199.93 4.64572 201.035 5.10038 202.042L36.1443 270.812Z" fill="#000072"/>
<path d="M227.156 273.069H35.5687C32.4126 273.069 29.8541 275.627 29.8541 278.783C29.8541 281.939 32.4126 284.498 35.5687 284.498H227.156C230.312 284.498 232.871 281.939 232.871 278.783C232.871 275.627 230.312 273.069 227.156 273.069Z" fill="#D0CFE5"/>
<g opacity="0.3">
<path opacity="0.3" d="M227.155 279.578H35.5736C34.4951 279.577 33.4388 279.271 32.527 278.695C31.6151 278.119 30.885 277.297 30.4211 276.323C30.0031 277.194 29.8128 278.156 29.8681 279.12C29.9235 280.084 30.2226 281.018 30.7374 281.835C31.2523 282.652 31.9661 283.325 32.812 283.79C33.6578 284.256 34.608 284.499 35.5736 284.498H227.155C228.12 284.5 229.071 284.257 229.917 283.791C230.763 283.325 231.477 282.652 231.992 281.835C232.507 281.018 232.806 280.084 232.861 279.12C232.916 278.156 232.726 277.193 232.307 276.323C231.843 277.297 231.113 278.119 230.201 278.695C229.29 279.271 228.233 279.577 227.155 279.578Z" fill="#000072"/>
</g>
<path d="M227.155 286.756H35.5736C33.4594 286.756 31.4318 285.916 29.9368 284.421C28.4419 282.926 27.602 280.899 27.602 278.784C27.602 276.67 28.4419 274.643 29.9368 273.148C31.4318 271.653 33.4594 270.813 35.5736 270.813H227.155C229.269 270.813 231.297 271.653 232.792 273.148C234.287 274.643 235.126 276.67 235.126 278.784C235.126 280.899 234.287 282.926 232.792 284.421C231.297 285.916 229.269 286.756 227.155 286.756ZM35.5736 275.326C34.6566 275.326 33.7772 275.69 33.1288 276.338C32.4804 276.987 32.1161 277.866 32.1161 278.783C32.1161 279.7 32.4804 280.58 33.1288 281.228C33.7772 281.876 34.6566 282.241 35.5736 282.241H227.155C228.072 282.241 228.951 281.876 229.6 281.228C230.248 280.58 230.612 279.7 230.612 278.783C230.612 277.866 230.248 276.987 229.6 276.338C228.951 275.69 228.072 275.326 227.155 275.326H35.5736Z" fill="#000072"/>
<path d="M150.549 286.087C144.82 280.306 148.044 274.005 150.549 271.479L153.764 274.648C153.088 275.347 149.911 279.033 153.754 282.909L150.549 286.087Z" fill="#000072"/>
<path d="M295.01 68.0375L269.501 117.952C266.789 114.6 263.805 111.478 260.579 108.618C241.233 91.4985 221.229 91.5391 221.229 91.5391C233.089 79.2465 250.713 69.4151 250.713 69.4151C280.725 54.0315 290.41 59.2836 293.534 63.9711C294.917 66.0633 295.01 68.0375 295.01 68.0375Z" fill="#726789"/>
<g opacity="0.3">
<path opacity="0.3" d="M245.548 80.1346C241.262 83.3227 241.727 89.7937 246.35 92.4678C256.725 98.4665 260.573 108.512 260.573 108.512V108.618C241.227 91.4985 221.222 91.5391 221.222 91.5391C233.09 79.2465 250.713 69.4151 250.713 69.4151C280.725 54.0315 290.41 59.2836 293.534 63.9711C277.379 59.3291 257.409 71.3105 245.548 80.1346Z" fill="#000072"/>
</g>
<path d="M269.499 120.044C269.188 120.044 268.88 119.975 268.599 119.841C268.319 119.707 268.071 119.512 267.875 119.271C247.312 93.9585 221.486 93.6301 221.227 93.6301C220.816 93.6311 220.414 93.5107 220.07 93.2841C219.727 93.0575 219.458 92.7346 219.297 92.356C219.137 91.9774 219.091 91.5597 219.167 91.1554C219.242 90.751 219.435 90.3779 219.722 90.0828C231.659 77.7151 248.966 67.9993 249.698 67.591L249.762 67.5565C269.501 57.4361 283.506 54.6206 291.383 59.1925C296.784 62.3254 297.089 67.7115 297.099 67.9391C297.116 68.3021 297.038 68.6633 296.872 68.987L271.365 118.903C271.206 119.213 270.973 119.479 270.686 119.676C270.398 119.873 270.067 119.996 269.72 120.032C269.647 120.04 269.573 120.044 269.499 120.044ZM225.957 89.8368C234.455 91.0114 252.848 95.6793 269.068 114.191L292.848 67.6586C292.648 66.6451 291.904 64.2934 289.202 62.7632C285.49 60.6624 275.683 58.9724 251.707 71.2601C250.966 71.6807 236.968 79.6241 225.957 89.8331V89.8368Z" fill="#000072"/>
<path d="M291.361 143.627C289.944 146.706 288.345 149.84 286.564 153.028L260.576 108.512C260.576 108.512 265.922 79.2378 287.063 66.1432C290.094 64.2613 294.104 65.6106 295.473 68.9082C296.045 70.2846 296.656 71.8996 297.261 73.7348V73.7421C301.685 87.0975 305.813 112.228 291.361 143.627Z" fill="#FF8DC1"/>
<g opacity="0.3">
<path opacity="0.3" d="M297.257 73.7348C297.038 73.4691 291.174 66.6081 283.842 75.6167C280.079 80.239 278.1 82.8872 277.062 84.378C276.96 84.5268 276.904 84.7029 276.902 84.8836C276.9 85.0643 276.953 85.2414 277.052 85.3923C277.151 85.5431 277.294 85.6609 277.46 85.7304C277.627 85.8 277.811 85.8181 277.988 85.7826L281.565 85.0692C282.472 84.8893 283.413 85.0718 284.187 85.5777C284.96 86.0835 285.505 86.8724 285.704 87.7752C286.505 91.3668 287.094 97.7382 284.579 106.246C284.061 107.939 284.215 109.766 285.008 111.348C286.478 114.212 288.235 119.704 285.451 126.772C284.886 128.213 284.832 129.804 285.298 131.28C286.219 134.211 288.105 139.179 291.361 143.627C289.944 146.706 288.345 149.84 286.564 153.028L260.576 108.512C260.576 108.512 265.922 79.2378 287.063 66.1432C290.094 64.2613 294.104 65.6106 295.473 68.9082C296.041 70.2846 296.652 71.8996 297.257 73.7348Z" fill="#000072"/>
</g>
<path d="M286.564 155.123C286.198 155.123 285.838 155.027 285.521 154.845C285.204 154.663 284.94 154.401 284.756 154.085L258.765 109.565C258.514 109.132 258.427 108.624 258.519 108.133C258.744 106.903 264.28 77.7865 285.96 64.3635C286.926 63.7665 288.011 63.3869 289.138 63.251C290.266 63.1151 291.409 63.2261 292.49 63.5763C293.59 63.9289 294.6 64.5169 295.449 65.2995C296.299 66.082 296.968 67.0403 297.41 68.1076C302.42 80.1837 311.567 112.736 288.396 154.054C288.216 154.375 287.954 154.644 287.637 154.831C287.32 155.019 286.958 155.12 286.59 155.123H286.564ZM262.784 108.148L286.494 148.766C306.536 110.603 298.179 80.9082 293.533 69.7103C293.323 69.2038 293.005 68.7491 292.602 68.378C292.198 68.0069 291.718 67.7282 291.196 67.5615C290.693 67.3934 290.16 67.3387 289.634 67.4012C289.108 67.4637 288.602 67.642 288.153 67.9231C269.906 79.2231 263.785 103.596 262.784 108.148Z" fill="#000072"/>
<path d="M264.903 94.5427L279.031 91.7137C279.031 91.7137 281.275 102.22 276.146 108.417C276.146 108.417 288.189 123.02 273.563 130.765L260.569 108.502C260.569 108.502 262.44 99.9953 264.903 94.5427Z" fill="#726789"/>
<path d="M273.568 132.86C273.202 132.86 272.842 132.764 272.525 132.582C272.208 132.4 271.944 132.138 271.759 131.822L258.765 109.565C258.5 109.111 258.415 108.574 258.528 108.06C258.606 107.704 260.472 99.2684 262.997 93.6805C263.134 93.3776 263.341 93.1118 263.601 92.9049C263.861 92.6981 264.167 92.5562 264.493 92.4911L278.62 89.6621C279.161 89.5528 279.722 89.6612 280.183 89.9636C280.643 90.266 280.966 90.738 281.08 91.2771C281.174 91.7174 283.191 101.505 278.743 108.411C280.494 110.968 283.848 116.833 282.655 122.809C281.838 126.9 279.111 130.199 274.552 132.616C274.248 132.777 273.911 132.86 273.568 132.86ZM262.798 108.17L274.304 127.881C276.665 126.253 278.089 124.277 278.545 121.99C279.517 117.119 275.977 111.503 274.531 109.749C274.221 109.374 274.051 108.903 274.051 108.416C274.051 107.93 274.221 107.459 274.531 107.084C277.687 103.271 277.591 97.3139 277.274 94.2008L266.388 96.3791C264.665 100.564 263.279 106.134 262.798 108.17Z" fill="#000072"/>
<path d="M199.779 97.3976C199.779 97.3976 179.781 96.7826 159.951 113.346C158.576 114.491 157.205 115.716 155.844 117.036C154.138 118.684 152.438 120.472 150.769 122.419L126.697 71.7939C126.697 71.7939 126.697 71.725 126.718 71.5995C126.942 70.2216 127.479 68.9134 128.287 67.7755C131.547 63.1814 141.378 58.211 170.934 74.4408C170.938 74.4445 188.277 84.7728 199.779 97.3976Z" fill="#726789"/>
<g opacity="0.3">
<path opacity="0.3" d="M199.779 97.3976C199.779 97.3976 179.781 96.7826 159.951 113.346C158.576 114.491 157.205 115.716 155.844 117.036C155.081 115.862 154.683 114.489 154.699 113.09C154.699 103.127 164.024 95.774 170.585 91.8318C171.265 91.4242 171.836 90.8568 172.249 90.1788C172.661 89.5008 172.901 88.7326 172.95 87.9406C172.998 87.1486 172.853 86.3568 172.527 85.6336C172.2 84.9104 171.703 84.2776 171.077 83.7901C138.067 58.0007 126.693 71.7939 126.693 71.7939C126.693 71.7939 126.693 71.725 126.714 71.5995C126.938 70.2216 127.475 68.9134 128.284 67.7755C131.543 63.1814 141.375 58.211 170.93 74.4408C170.938 74.4445 188.277 84.7728 199.779 97.3976Z" fill="#000072"/>
</g>
<path d="M150.774 124.519C150.681 124.519 150.588 124.513 150.495 124.501C150.15 124.454 149.821 124.323 149.54 124.117C149.259 123.912 149.033 123.639 148.884 123.325L124.811 72.6992C124.655 72.3713 124.587 72.0084 124.615 71.6463C124.632 71.4187 125.091 66.0449 130.578 63.0658C138.582 58.7227 152.5 61.9354 171.944 72.6168L172.006 72.6524C172.726 73.0817 189.748 83.287 201.328 95.9917C201.606 96.2953 201.789 96.6741 201.852 97.0808C201.916 97.4874 201.858 97.9038 201.686 98.2777C201.514 98.6516 201.235 98.9664 200.885 99.1827C200.535 99.399 200.129 99.5071 199.717 99.4935C199.455 99.4861 173.641 99.0753 152.362 123.792C152.166 124.021 151.922 124.204 151.648 124.329C151.374 124.455 151.076 124.52 150.774 124.519ZM128.872 71.4925L151.317 118.679C168.059 100.635 186.58 96.4947 195.105 95.5636C184.384 85.0361 170.628 76.7016 169.89 76.2613C146.164 63.2343 136.324 64.6992 132.57 66.741C131.652 67.2244 130.848 67.8977 130.21 68.7161C129.572 69.5345 129.116 70.4793 128.872 71.4876V71.4925Z" fill="#000072"/>
<path d="M128.193 147.462C129.521 150.578 131.031 153.756 132.723 156.996L159.972 113.241C159.972 113.241 155.465 83.822 134.707 70.1321C131.73 68.1641 127.685 69.4003 126.22 72.6573C125.605 74.0165 124.952 75.6093 124.295 77.4297L124.287 77.4371C119.483 90.6608 114.638 115.663 128.193 147.462Z" fill="#FF8DC1"/>
<g opacity="0.3">
<path opacity="0.3" d="M124.291 77.4297C124.517 77.1702 130.575 70.4802 137.648 79.6942C141.276 84.4223 143.183 87.1258 144.174 88.6461C144.273 88.7977 144.324 88.9754 144.321 89.1563C144.318 89.3372 144.261 89.513 144.157 89.6612C144.053 89.8094 143.907 89.9231 143.738 89.9877C143.569 90.0523 143.385 90.0648 143.208 90.0237L139.653 89.2082C138.752 89.0022 137.806 89.1572 137.019 89.64C136.231 90.1229 135.664 90.8951 135.439 91.7912C134.536 95.3582 133.763 101.71 136.035 110.287C136.503 111.993 136.298 113.815 135.461 115.374C133.91 118.194 131.505 122.105 134.087 129.25C134.612 130.705 133.399 133.159 132.894 134.621C131.889 137.524 130.848 142.391 128.188 147.459C129.516 150.575 131.026 153.752 132.718 156.992L159.967 113.237C159.967 113.237 155.461 83.8184 134.702 70.1285C131.725 68.1605 127.68 69.3966 126.215 72.6536C125.61 74.0165 124.948 75.613 124.291 77.4297Z" fill="#000072"/>
</g>
<path d="M132.715 159.091H132.637C132.268 159.077 131.91 158.966 131.598 158.77C131.286 158.573 131.031 158.297 130.861 157.97C108.879 116.007 118.954 83.731 124.306 71.8012C124.778 70.7478 125.473 69.8096 126.344 69.052C127.215 68.2943 128.24 67.7353 129.349 67.4138C130.439 67.0949 131.585 67.0168 132.708 67.185C133.831 67.3532 134.904 67.7637 135.853 68.388C157.141 82.4235 161.844 111.684 162.034 112.923C162.109 113.417 162.005 113.922 161.741 114.346L134.489 158.105C134.301 158.407 134.04 158.655 133.73 158.828C133.419 159 133.07 159.09 132.715 159.091ZM131.569 71.2797C130.841 71.2828 130.13 71.495 129.519 71.891C128.909 72.287 128.425 72.8501 128.125 73.5134C123.163 84.5748 113.958 114.017 132.902 152.738L157.767 112.813C156.896 108.235 151.474 83.6978 133.552 71.8799C132.964 71.4888 132.275 71.28 131.569 71.2797Z" fill="#000072"/>
<path d="M156.036 99.1539L141.996 95.9227C141.996 95.9227 139.453 106.362 144.403 112.702C144.403 112.702 131.948 126.954 146.343 135.115L159.967 113.237C159.967 113.237 158.344 104.675 156.036 99.1539Z" fill="#726789"/>
<path d="M146.341 137.209C145.98 137.209 145.625 137.115 145.311 136.936C140.82 134.391 138.189 131.015 137.49 126.902C136.468 120.894 139.988 115.127 141.811 112.621C137.56 105.592 139.855 95.865 139.966 95.4271C140.096 94.8921 140.432 94.4299 140.9 94.1409C141.369 93.8519 141.933 93.7594 142.469 93.8835L156.51 97.1147C156.834 97.1887 157.135 97.339 157.39 97.5529C157.644 97.7668 157.844 98.0382 157.972 98.3447C160.336 104.003 161.96 112.49 162.031 112.846C162.129 113.362 162.029 113.896 161.751 114.342L148.119 136.221C147.931 136.524 147.669 136.773 147.358 136.946C147.047 137.119 146.697 137.209 146.341 137.209ZM143.678 98.4579C143.274 101.56 143.007 107.513 146.052 111.415C146.352 111.798 146.508 112.274 146.495 112.76C146.481 113.246 146.299 113.713 145.978 114.079C145.927 114.139 140.611 120.352 141.619 126.214C142.013 128.508 143.378 130.519 145.687 132.21L157.752 112.834C157.33 110.785 156.104 105.177 154.499 100.946L143.678 98.4579Z" fill="#000072"/>
<path d="M289.742 185.077C289.742 185.077 292.39 188.63 296.853 191.465C299.228 192.978 299.71 196.248 297.826 198.335C291.102 205.796 276.27 220.013 259.736 221.42C259.595 221.436 259.448 221.445 259.302 221.457C259.302 221.457 200.274 259.635 150.324 217.422C150.324 217.422 134.618 214.644 124.583 196.918C124.265 196.354 124.094 195.72 124.084 195.073C124.073 194.426 124.225 193.787 124.525 193.213C124.864 192.539 125.396 191.98 126.052 191.607C127.488 190.79 129.039 190.195 130.653 189.844C130.653 189.844 126.383 187.447 123.008 180.222C122.62 179.383 122.543 178.433 122.791 177.543C123.038 176.652 123.595 175.879 124.361 175.361C126.104 174.195 128.285 172.359 129.603 169.857C130.223 168.7 130.607 167.432 130.734 166.126C130.829 165.148 130.98 163.118 131.356 160.308C131.498 159.252 131.671 158.094 131.885 156.829C132.278 154.511 132.8 151.869 133.517 149.007C137.468 133.123 147.163 110.368 171.497 97.074C172.104 96.7382 172.727 96.4148 173.342 96.09C179.592 92.8947 186.247 90.5642 193.124 89.1627C193.658 89.0532 194.197 88.9487 194.731 88.849C203.01 87.3445 211.478 87.1871 219.808 88.3829C220.808 88.5243 221.807 88.6916 222.801 88.8749C227.225 89.685 231.57 90.8785 235.787 92.4419C237.074 92.9191 238.377 93.4369 239.685 94.0064C244.609 96.1141 249.307 98.7157 253.707 101.771C265.844 110.215 277.433 123.469 284.727 144.23C285.565 146.608 286.342 149.083 287.056 151.654C287.056 151.654 287.093 152.24 287.249 153.219C287.36 153.92 287.527 154.818 287.783 155.851C288.667 159.387 290.577 164.446 294.671 168.172C295.536 168.968 296.479 169.675 297.486 170.281C298.422 170.843 299.122 171.726 299.457 172.765C299.791 173.804 299.738 174.929 299.307 175.932C297.737 179.547 294.744 184.324 289.742 185.077Z" fill="#726789"/>
<path d="M263.237 217.982L259.736 221.42C259.595 221.436 259.448 221.446 259.302 221.457C259.302 221.457 200.274 259.635 150.324 217.422C150.324 217.422 156.007 194.1 176.372 188.831C177.403 188.572 178.38 188.128 179.252 187.52C182.85 184.983 194.493 178.648 211.97 187.346C213.3 188.016 214.777 188.337 216.264 188.281C224.256 187.948 251.713 189.012 263.237 217.982Z" fill="white"/>
<g opacity="0.3">
<path opacity="0.3" d="M189.597 186.757C189.597 186.757 189.288 198.869 175.834 192.925C175.834 192.925 173.053 197.523 179.46 202.062C179.46 202.062 193.773 217.929 210.365 204.136C210.365 204.136 217.317 200.491 216.588 193.312C216.588 193.312 213.643 193.953 207.509 194.341C205.536 194.464 203.57 193.999 201.861 193.006C200.152 192.012 198.775 190.534 197.905 188.758C197.291 187.488 196.754 186.182 196.295 184.847L189.597 186.757Z" fill="#000072"/>
</g>
<path d="M174.072 151.289C174.687 153.718 171.823 155.489 169.89 153.885C168.343 152.599 166.436 151.439 164.186 150.841C158.373 149.295 170.977 139.166 174.072 151.289Z" fill="white"/>
<path d="M222.498 151.948C221.798 153.916 224.071 155.584 225.78 154.372C228.163 152.682 231.429 151.225 235.688 151.062C245.248 150.697 229.235 132.941 222.498 151.948Z" fill="white"/>
<path d="M219.81 88.3878C219.659 88.5612 219.507 88.7285 219.344 88.9167C219.094 89.2623 218.822 89.591 218.529 89.9007C217.422 91.3238 216.096 92.8109 214.814 94.6362C214.489 95.0864 214.149 95.5304 213.798 95.9806C213.614 96.2037 213.45 96.4419 213.306 96.6928L212.836 97.4455C212.221 98.4615 211.507 99.4234 210.968 100.559C210.392 101.666 209.786 102.767 209.21 103.913L207.646 107.502L207.242 108.412C207.099 108.714 206.976 109.025 206.873 109.343L206.188 111.242L204.781 115.105C204.399 116.428 203.996 117.763 203.588 119.107L202.966 121.127L202.652 122.146L202.395 123.177L201.343 127.347L200.779 129.45L200.496 130.513L200.271 131.574C200.057 132.59 199.837 133.607 199.611 134.625C199.235 136.294 196.896 136.414 196.357 134.792C196.017 133.778 195.689 132.758 195.373 131.732C194.512 128.849 193.861 125.909 193.181 122.942L192.935 121.822L192.752 120.697L192.412 118.432C192.182 116.92 191.962 115.392 191.763 113.859C191.632 112.315 191.538 110.757 191.449 109.192C191.361 107.627 191.235 106.047 191.333 104.452L191.486 99.6226C191.637 97.9953 191.855 96.3582 192.062 94.7026L192.218 93.4579C192.271 93.0446 192.385 92.6313 192.464 92.2131L192.883 90.3337L193.019 89.7064L193.142 89.1725C193.675 89.0631 194.214 88.9585 194.748 88.8589C203.022 87.3543 211.485 87.1953 219.81 88.3878Z" fill="#504563"/>
<path d="M192.871 90.3251C192.614 90.4665 192.347 90.603 192.075 90.7236C192.201 90.6901 192.324 90.649 192.444 90.6006L192.486 90.6313C192.512 90.6522 192.538 90.6584 192.554 90.6732C192.529 90.7518 192.496 90.8274 192.454 90.8983L192.37 91.0299L192.271 91.1713C192.235 91.2131 192.203 91.2599 192.166 91.3017C192.121 91.3465 192.079 91.3955 192.043 91.4481C191.879 91.6705 191.703 91.8836 191.515 92.0864C191.329 92.3354 191.128 92.5732 190.914 92.7986C190.113 93.8392 189.14 94.9228 188.208 96.2561C187.962 96.5808 187.716 96.9105 187.47 97.2401C187.335 97.4037 187.214 97.5786 187.11 97.7629L186.764 98.3065C186.314 99.0445 185.796 99.7506 185.399 100.583C184.98 101.389 184.538 102.195 184.117 103.032L182.971 105.653L182.682 106.315C182.576 106.534 182.485 106.759 182.41 106.99L181.908 108.381L180.882 111.197C180.605 112.165 180.306 113.138 180.009 114.116L179.559 115.592L179.322 116.34L179.139 117.094L178.37 120.133L177.962 121.672L177.753 122.44L177.591 123.22C177.434 123.958 177.272 124.696 177.105 125.444C176.833 126.663 175.127 126.752 174.735 125.567C174.489 124.829 174.243 124.075 174.008 123.327C173.379 121.229 172.908 119.084 172.409 116.913L172.232 116.102L172.095 115.276L171.849 113.627C171.687 112.52 171.524 111.404 171.378 110.283C171.283 109.159 171.216 108.024 171.153 106.877C171.09 105.731 170.995 104.586 171.064 103.42L171.174 99.8932C171.262 98.9609 171.383 98.0138 171.503 97.0642C172.11 96.7285 172.733 96.405 173.348 96.0802C179.598 92.8849 186.253 90.5544 193.13 89.1529C193.664 89.0434 194.203 88.9389 194.737 88.8392C194.191 89.4234 193.562 89.924 192.871 90.3251Z" fill="#504563"/>
<path d="M239.687 94.0151C239.002 94.5969 238.269 95.2242 237.537 95.9462C237.244 96.2291 236.94 96.5062 236.627 96.7776C236.465 96.9158 236.315 97.0663 236.177 97.2278L235.743 97.7038C235.167 98.3533 234.529 98.9498 233.99 99.6928C233.435 100.409 232.848 101.126 232.289 101.869L230.69 104.244L230.281 104.846C230.138 105.043 230.007 105.249 229.889 105.461L229.151 106.737L227.634 109.32C227.184 110.219 226.718 111.124 226.247 112.035L225.541 113.406L225.181 114.096L224.861 114.803L223.558 117.659L222.878 119.094L222.532 119.82L222.235 120.558C221.947 121.26 221.654 121.961 221.355 122.662C220.869 123.807 219.173 123.587 219.001 122.353C218.892 121.578 218.787 120.803 218.692 120.025C218.446 117.848 218.373 115.651 218.274 113.427L218.242 112.594L218.258 111.763L218.31 110.089C218.347 108.974 218.388 107.849 218.446 106.719C218.556 105.594 218.692 104.464 218.834 103.329C218.975 102.193 219.096 101.042 219.372 99.9068L220.11 96.4628C220.435 95.3226 220.812 94.1713 221.172 93.0089L221.445 92.1406C221.539 91.8478 221.675 91.5649 221.789 91.2796L222.511 89.5576L222.794 88.8872C227.218 89.6973 231.564 90.8908 235.781 92.4542C237.076 92.9302 238.38 93.448 239.687 94.0151Z" fill="#504563"/>
<path d="M294.666 168.184L292.5 167.425C291.352 167.032 290.187 166.645 289.005 166.264C286.649 165.5 284.243 164.816 281.785 164.212C280.555 163.878 279.31 163.664 278.048 163.36C276.793 163.14 275.511 162.831 274.219 162.628C271.608 162.083 268.955 161.79 266.057 161.22C266.643 160.792 267.255 160.409 267.878 160.022C268.496 159.64 269.137 159.295 269.798 158.991C270.454 158.688 271.118 158.396 271.791 158.113C272.472 157.846 273.157 157.642 273.853 157.412L274.9 157.092C275.25 156.992 275.601 156.925 275.956 156.836C276.662 156.674 277.374 156.532 278.09 156.381C279.524 156.187 280.978 155.968 282.428 155.899C284.21 155.779 285.997 155.767 287.78 155.863C288.665 159.398 290.575 164.457 294.666 168.184Z" fill="#504563"/>
<path d="M287.246 153.23C286.352 152.984 285.447 152.749 284.54 152.524C283.31 152.188 282.071 151.974 280.81 151.676C279.554 151.456 278.272 151.142 276.98 150.938C274.37 150.399 271.716 150.105 268.812 149.53C269.404 149.102 270.017 148.719 270.639 148.332C271.255 147.949 271.895 147.605 272.554 147.301C273.213 146.999 273.878 146.705 274.553 146.428C275.228 146.151 275.918 145.952 276.608 145.727L277.655 145.402C278.005 145.302 278.361 145.235 278.711 145.146C279.419 144.984 280.135 144.842 280.852 144.696C282.128 144.518 283.426 144.327 284.729 144.241C285.567 146.619 286.343 149.094 287.057 151.665C287.057 151.665 287.09 152.251 287.246 153.23Z" fill="#504563"/>
<path d="M149.622 165.713C146.724 166.284 144.071 166.574 141.459 167.121C140.168 167.324 138.886 167.633 137.63 167.853C136.368 168.157 135.124 168.371 133.894 168.706C132.445 169.062 131.015 169.446 129.603 169.857C130.223 168.7 130.607 167.432 130.734 166.126C130.829 165.148 130.98 163.118 131.356 160.308C131.99 160.319 132.623 160.35 133.25 160.392C134.701 160.461 136.154 160.675 137.589 160.874C138.304 161.025 139.017 161.162 139.723 161.329C140.078 161.413 140.429 161.481 140.779 161.585L141.826 161.905C142.522 162.129 143.207 162.339 143.883 162.606C144.558 162.873 145.227 163.175 145.881 163.484C146.543 163.787 147.184 164.131 147.801 164.515C148.424 164.897 149.036 165.284 149.622 165.713Z" fill="#504563"/>
<path d="M146.87 154.024C143.966 154.6 141.313 154.885 138.703 155.433C137.41 155.637 136.129 155.95 134.873 156.171C133.863 156.417 132.869 156.6 131.885 156.835C132.277 154.518 132.8 151.876 133.517 149.013C133.956 149.071 134.397 149.136 134.831 149.197C135.548 149.343 136.264 149.484 136.971 149.647C137.322 149.735 137.677 149.803 138.028 149.903L139.074 150.222C139.764 150.452 140.456 150.657 141.13 150.923C141.804 151.19 142.469 151.499 143.124 151.802C143.784 152.105 144.426 152.45 145.044 152.832C145.666 153.214 146.274 153.596 146.87 154.024Z" fill="#504563"/>
<g opacity="0.3">
<path opacity="0.3" d="M290.623 184.898C290.531 184.92 290.446 184.965 290.376 185.029C290.306 185.093 290.254 185.174 290.224 185.264C290.195 185.354 290.188 185.45 290.206 185.543C290.224 185.636 290.265 185.723 290.326 185.795C292.218 187.989 294.416 189.899 296.853 191.465C299.228 192.978 299.71 196.248 297.826 198.335C291.102 205.796 276.27 220.013 259.736 221.42C259.595 221.436 259.448 221.445 259.302 221.457C259.302 221.457 200.36 259.579 150.437 217.514C150.367 217.453 150.282 217.411 150.191 217.391C148.656 217.077 134.078 213.689 124.581 196.913C124.123 196.103 123.973 195.155 124.159 194.243C124.183 194.14 124.236 194.046 124.312 193.972C124.387 193.898 124.482 193.848 124.586 193.826C124.689 193.804 124.796 193.813 124.895 193.85C124.994 193.887 125.08 193.952 125.143 194.036C127.742 197.409 132.476 202.292 139.78 205.417C139.871 205.458 139.97 205.473 140.068 205.462C140.167 205.451 140.26 205.414 140.339 205.355C140.419 205.296 140.48 205.217 140.519 205.126C140.557 205.034 140.571 204.935 140.558 204.837C140.37 203.351 140.37 201.848 140.558 200.362C140.568 200.252 140.611 200.148 140.68 200.062C140.75 199.977 140.843 199.914 140.948 199.881C141.054 199.849 141.166 199.848 141.272 199.88C141.378 199.911 141.472 199.973 141.542 200.058C145.896 205.217 168.179 228.994 206.791 225.993C250.066 222.629 304.919 155.302 257.648 106.142L257.602 106.094C257.118 105.589 257.819 104.839 258.361 105.281C268.761 113.755 278.378 126.145 284.734 144.236C285.565 146.594 286.336 149.051 287.046 151.605C287.057 151.64 287.063 151.676 287.066 151.713C287.078 151.877 287.126 152.417 287.255 153.225C287.366 153.926 287.533 154.824 287.789 155.857C288.673 159.393 290.583 164.452 294.677 168.178C295.542 168.974 296.485 169.681 297.492 170.287C298.428 170.85 299.128 171.732 299.463 172.771C299.798 173.81 299.744 174.935 299.313 175.938C297.832 179.33 295.104 183.755 290.623 184.898Z" fill="#000072"/>
</g>
<g opacity="0.5">
<path opacity="0.5" d="M239.687 94.015C238.38 93.4455 237.076 92.9277 235.789 92.4505C231.572 90.8871 227.227 89.6936 222.803 88.8835C221.809 88.7002 220.81 88.5329 219.81 88.3915C211.482 87.1931 203.015 87.3476 194.736 88.849C194.202 88.9487 193.663 89.0532 193.129 89.1627C186.252 90.5642 179.597 92.8947 173.347 96.09C172.724 96.4098 172.106 96.7333 171.502 97.074C147.163 110.374 137.468 133.129 133.517 149.007C132.8 151.869 132.278 154.511 131.885 156.829C131.671 158.091 131.498 159.252 131.356 160.308C130.98 163.118 130.829 165.148 130.734 166.126C130.607 167.432 130.223 168.7 129.603 169.857C128.285 172.359 126.104 174.195 124.361 175.361C123.595 175.879 123.038 176.652 122.791 177.543C122.543 178.433 122.62 179.383 123.008 180.222C126.383 187.447 130.653 189.844 130.653 189.844C130.653 189.844 131.59 190.137 128.215 182.911C127.409 181.189 126.97 180.082 128.549 179.024C130.292 177.857 132.473 176.02 133.792 173.52C134.411 172.363 134.795 171.095 134.922 169.789C135.017 168.805 135.168 166.781 135.544 163.971C135.686 162.915 135.859 161.757 136.073 160.492C136.466 158.174 136.988 155.532 137.705 152.67C138.957 147.602 140.617 142.644 142.667 137.844C143.355 136.245 144.831 135.171 146.543 134.852C149.903 134.229 154.875 130.332 159.163 124.633C163.198 119.267 165.532 113.761 165.513 110.298C165.503 108.522 166.275 106.833 167.709 105.787C170.256 103.933 172.92 102.245 175.685 100.736C176.292 100.401 176.915 100.076 177.53 99.7517C183.782 96.5569 190.439 94.2285 197.319 92.8305C197.852 92.7198 198.391 92.6153 198.925 92.5169C207.205 91.0124 215.673 90.855 224.002 92.0507C225.001 92.1922 226.001 92.3594 226.995 92.5427C231.419 93.3528 235.764 94.5463 239.981 96.1097C241.268 96.5857 242.572 97.1036 243.879 97.6743C250.551 100.524 256.795 104.287 262.432 108.855C255.777 102.616 248.078 97.5936 239.687 94.015Z" fill="white"/>
</g>
<path d="M204.239 239.349C187.434 239.349 167.821 234.77 149.381 219.362C146.306 218.658 132.191 214.602 122.765 197.948C121.989 196.566 121.791 194.934 122.213 193.406C122.634 191.879 123.642 190.58 125.017 189.791C125.483 189.524 125.961 189.278 126.453 189.053C124.835 187.389 122.846 184.831 121.108 181.109C120.514 179.816 120.398 178.354 120.781 176.984C121.164 175.614 122.021 174.424 123.199 173.626C125.503 172.082 128.319 169.495 128.654 165.934L128.704 165.375C129.073 161.251 130.189 148.702 136.102 134.439C143.66 116.207 155.87 102.678 172.387 94.2303C192.226 84.0865 215.601 82.7236 236.519 90.4935C254.678 97.2389 278.536 113.231 289.068 151.107C289.106 151.246 289.13 151.388 289.139 151.532C289.147 151.645 290.041 163.34 298.566 168.506C299.933 169.334 300.956 170.628 301.444 172.149C301.932 173.671 301.854 175.318 301.224 176.787C299.763 180.135 297.309 184.106 293.441 186.063C294.82 187.431 296.34 188.651 297.974 189.702C298.795 190.222 299.492 190.915 300.017 191.733C300.542 192.551 300.881 193.473 301.013 194.436C301.143 195.385 301.064 196.352 300.782 197.268C300.5 198.184 300.021 199.027 299.379 199.738C291.922 208.015 276.95 222.024 259.981 223.503C257.275 225.176 243.31 233.389 223.96 237.32C217.471 238.653 210.864 239.333 204.239 239.349ZM208.719 89.6916C196.753 89.6827 184.955 92.5134 174.295 97.951C142.036 114.445 134.495 147.503 132.872 165.739L132.819 166.321C132.327 171.517 128.584 175.054 125.526 177.097C125.175 177.335 124.919 177.691 124.805 178.1C124.691 178.509 124.725 178.945 124.902 179.332C127.905 185.759 131.651 187.998 131.69 188.02C132.054 188.232 132.346 188.548 132.528 188.927C132.71 189.307 132.773 189.733 132.71 190.149C132.647 190.565 132.461 190.953 132.174 191.262C131.888 191.57 131.516 191.786 131.105 191.88C129.7 192.189 128.349 192.707 127.098 193.419C126.683 193.656 126.378 194.047 126.249 194.507C126.12 194.968 126.178 195.461 126.41 195.879C135.798 212.464 150.549 215.327 150.697 215.355C151.059 215.421 151.398 215.58 151.681 215.816C166.965 228.731 184.45 235.226 203.844 235.228C210.037 235.228 216.421 234.565 222.995 233.239C243.399 229.121 258.027 219.786 258.173 219.693C258.468 219.502 258.806 219.389 259.157 219.363C274.88 218.236 289.16 204.825 296.272 196.929C296.508 196.671 296.685 196.363 296.788 196.028C296.891 195.693 296.918 195.34 296.869 194.993C296.819 194.633 296.692 194.289 296.495 193.984C296.299 193.678 296.038 193.42 295.731 193.226C290.999 190.215 288.185 186.478 288.067 186.32C287.85 186.031 287.712 185.689 287.667 185.33C287.621 184.971 287.67 184.607 287.807 184.272C287.945 183.937 288.167 183.644 288.452 183.421C288.737 183.198 289.075 183.053 289.433 182.999C293.426 182.398 295.965 178.375 297.391 175.105C297.619 174.566 297.644 173.963 297.462 173.407C297.28 172.851 296.903 172.38 296.401 172.079C286.604 166.145 285.153 153.927 284.984 152.03C274.898 115.991 252.28 100.808 235.065 94.4136C226.633 91.2864 217.712 89.6874 208.719 89.6916Z" fill="#000072"/>
<path d="M148.78 218.831C148.258 218.149 147.78 217.435 147.35 216.692C146.913 215.96 146.517 215.196 146.147 214.417C145.774 213.633 145.451 212.826 145.183 212C144.921 211.169 144.684 210.31 144.666 209.433C144.814 209.597 144.955 209.758 145.089 209.914L145.532 210.362C145.825 210.656 146.115 210.943 146.426 211.216C147.041 211.765 147.643 212.308 148.264 212.836L150.101 214.423C150.716 214.944 151.319 215.497 151.875 216.013L148.78 218.831Z" fill="#000072"/>
<path d="M257.969 219.844L262.125 216.436C263.519 215.288 264.902 214.126 266.275 212.95C267.648 211.774 269.004 210.574 270.344 209.348C271.697 208.138 273.057 206.932 274.608 205.816C273.934 207.598 272.964 209.21 271.889 210.726C270.789 212.221 269.644 213.689 268.434 215.095C267.223 216.501 265.983 217.882 264.691 219.213C264.046 219.88 263.387 220.532 262.713 221.17C262.038 221.815 261.373 222.442 260.64 223.068L257.969 219.844Z" fill="#000072"/>
<path d="M288.339 186.634C287.977 186.264 287.648 185.863 287.355 185.437C287.051 185.005 286.769 184.557 286.512 184.095C286.237 183.623 285.995 183.133 285.789 182.627C285.562 182.078 285.408 181.502 285.329 180.913C285.902 181.014 286.466 181.158 287.018 181.344C287.525 181.518 288.021 181.724 288.503 181.959C288.984 182.179 289.443 182.423 289.89 182.678C290.331 182.928 290.752 183.213 291.148 183.531L288.339 186.634Z" fill="#000072"/>
<path d="M210.733 203.149C209.728 207.957 206.584 214.476 196.993 215.572C192.18 216.122 188.664 214.651 186.105 212.359C180.439 207.284 179.463 198.202 179.463 198.202C192.333 202.999 193.608 188.445 193.608 188.445C195.068 204.015 211.167 197.898 211.167 197.898C211.251 199.66 211.105 201.425 210.733 203.149Z" fill="#000072"/>
<path d="M210.733 203.149C209.728 207.957 206.584 214.476 196.993 215.572C192.18 216.122 188.664 214.651 186.105 212.359C189.103 207.565 196.841 198.523 210.733 203.149Z" fill="#FF459A"/>
<path d="M195.014 217.781C191.353 217.781 188.126 216.674 185.385 214.487C178.596 209.054 177.425 198.858 177.378 198.426C177.339 198.071 177.392 197.712 177.531 197.383C177.67 197.055 177.891 196.767 178.173 196.548C178.455 196.329 178.788 196.185 179.141 196.131C179.494 196.078 179.855 196.115 180.19 196.24C183.198 197.363 185.643 197.355 187.457 196.216C190.948 194.024 191.516 188.311 191.516 188.253C191.562 187.733 191.802 187.249 192.188 186.897C192.573 186.545 193.076 186.35 193.598 186.35C194.119 186.349 194.621 186.544 195.007 186.894C195.392 187.245 195.633 187.727 195.682 188.245C196.023 191.896 197.281 194.421 199.417 195.748C203.649 198.387 210.346 195.961 210.413 195.935C210.717 195.82 211.043 195.776 211.366 195.809C211.689 195.841 212 195.948 212.274 196.121C212.549 196.294 212.779 196.529 212.947 196.807C213.115 197.085 213.216 197.398 213.242 197.721C213.75 203.923 211.059 216.069 197.228 217.647C196.493 217.734 195.754 217.778 195.014 217.781ZM182.169 201.096C182.956 204.088 184.629 208.533 188.014 211.229C190.421 213.149 193.281 213.89 196.759 213.494C206.549 212.376 208.619 204.773 209.015 200.665C205.979 201.308 201.121 201.742 197.207 199.306C195.694 198.363 194.437 197.064 193.545 195.521C192.663 197.112 191.427 198.656 189.7 199.747C187.552 201.106 185.03 201.558 182.169 201.096Z" fill="#000072"/>
<path d="M195.528 186.826L195.615 187.653C195.652 187.95 195.702 188.248 195.749 188.545C195.849 189.136 195.98 189.72 196.141 190.297C196.43 191.394 196.871 192.444 197.453 193.417C198.593 195.242 200.221 196.383 202.423 196.726C202.698 196.779 202.975 196.814 203.255 196.832L203.68 196.869L204.151 196.878C204.777 196.878 205.413 196.924 206.027 196.868L206.958 196.825L207.868 196.71L208.326 196.654L208.769 196.56C209.061 196.494 209.366 196.451 209.656 196.373C210.834 196.094 211.879 195.579 212.964 195.098C213.245 194.985 213.493 194.832 213.787 194.714C214.047 194.568 214.349 194.445 214.625 194.29C215.202 193.994 215.798 193.675 216.451 193.263L216.475 193.248C216.493 193.236 216.513 193.229 216.535 193.225C216.556 193.221 216.578 193.222 216.599 193.227C216.62 193.232 216.64 193.241 216.657 193.254C216.675 193.266 216.69 193.282 216.701 193.301C216.714 193.322 216.723 193.346 216.726 193.371C216.805 194.212 216.59 195.015 216.25 195.737C216.079 196.101 215.876 196.448 215.642 196.774C215.406 197.096 215.145 197.399 214.862 197.679C213.727 198.81 212.279 199.508 210.84 200.063C210.478 200.201 210.111 200.309 209.744 200.424L209.192 200.591L208.636 200.714L207.519 200.96L206.402 201.112C205.653 201.235 204.915 201.243 204.17 201.287L203.611 201.315L203.01 201.301C202.603 201.294 202.198 201.264 201.795 201.212C200.09 201.031 198.449 200.463 196.998 199.549C195.504 198.623 194.304 197.288 193.444 195.859C192.584 194.43 192.046 192.892 191.706 191.372C191.546 190.614 191.433 189.847 191.368 189.076C191.331 188.693 191.319 188.308 191.311 187.921C191.304 187.533 191.311 187.183 191.343 186.691C191.385 186.173 191.618 185.69 191.996 185.335C192.375 184.98 192.871 184.778 193.39 184.769C193.909 184.759 194.413 184.943 194.804 185.285C195.194 185.627 195.444 186.101 195.504 186.617L195.528 186.826Z" fill="#000072"/>
<path d="M195.534 187.283C195.576 187.712 195.587 187.997 195.592 188.341C195.597 188.686 195.592 189.001 195.574 189.325C195.54 189.983 195.466 190.638 195.352 191.287C195.118 192.639 194.673 193.945 194.033 195.158C193.356 196.459 192.394 197.59 191.22 198.469C190.05 199.34 188.696 199.933 187.262 200.203C186.589 200.332 185.907 200.407 185.222 200.427C184.575 200.427 183.945 200.41 183.308 200.387C182.016 200.229 180.709 200.069 179.425 199.51C179.099 199.384 178.783 199.234 178.48 199.061C178.325 198.976 178.169 198.901 178.019 198.806L177.578 198.495C177.436 198.387 177.291 198.283 177.153 198.169C177.015 198.055 176.896 197.911 176.769 197.78C176.515 197.52 176.293 197.231 176.106 196.919C175.899 196.627 175.776 196.274 175.636 195.955C175.525 195.621 175.449 195.276 175.409 194.927C175.319 194.241 175.428 193.545 175.722 192.919C175.729 192.905 175.739 192.892 175.752 192.881C175.764 192.87 175.778 192.862 175.794 192.857C175.809 192.852 175.825 192.85 175.842 192.851C175.858 192.852 175.874 192.857 175.888 192.864C175.907 192.873 175.923 192.887 175.935 192.903L175.946 192.919C176.272 193.396 176.639 193.843 177.042 194.256C177.208 194.449 177.411 194.606 177.581 194.772L177.861 194.989C177.944 195.068 178.036 195.136 178.136 195.192C178.857 195.713 179.667 196.099 180.525 196.331C181.407 196.577 182.427 196.602 183.423 196.606L184.96 196.5C185.423 196.442 185.882 196.349 186.331 196.221C187.192 195.949 187.962 195.6 188.579 195.062C189.218 194.514 189.743 193.845 190.123 193.094C190.539 192.257 190.842 191.369 191.025 190.453C191.127 189.972 191.205 189.485 191.258 188.996C191.283 188.75 191.31 188.504 191.326 188.258L191.359 187.591L191.369 187.387C191.402 186.865 191.629 186.374 192.005 186.011C192.382 185.648 192.881 185.439 193.404 185.426C193.926 185.413 194.435 185.596 194.83 185.94C195.224 186.284 195.475 186.763 195.534 187.282V187.283Z" fill="#000072"/>
<path d="M178.111 173.026C178.538 165.797 174.422 159.674 168.917 159.349C163.413 159.024 158.605 164.62 158.178 171.848C157.751 179.076 161.867 185.2 167.372 185.525C172.876 185.85 177.684 180.254 178.111 173.026Z" fill="#000072"/>
<path d="M173.635 170.343C173.76 168.232 172.557 166.444 170.949 166.349C169.342 166.254 167.937 167.888 167.812 169.999C167.688 172.11 168.89 173.899 170.498 173.993C172.106 174.088 173.51 172.454 173.635 170.343Z" fill="white"/>
<path d="M224.878 185.564C230.382 185.239 234.498 179.116 234.071 171.888C233.645 164.66 228.836 159.064 223.332 159.389C217.828 159.714 213.711 165.837 214.138 173.065C214.565 180.293 219.374 185.89 224.878 185.564Z" fill="#000072"/>
<path d="M221.751 174.031C223.359 173.936 224.562 172.148 224.437 170.037C224.312 167.926 222.908 166.291 221.3 166.386C219.692 166.481 218.49 168.269 218.614 170.38C218.739 172.491 220.144 174.126 221.751 174.031Z" fill="white"/>
<path d="M194.755 190.627C201.834 190.838 206.855 183.315 204.522 181.082C203.588 180.188 201.898 179.557 200.205 179.122C196.867 178.266 193.38 178.161 189.996 178.817C188.282 179.151 186.552 179.678 185.568 180.516C183.112 182.607 187.675 190.415 194.755 190.627Z" fill="#000072"/>
<g opacity="0.3">
<path opacity="0.3" d="M195.413 181.553C195.436 182.291 193.899 182.937 191.982 182.997C190.064 183.057 188.49 182.505 188.466 181.767C188.443 181.029 189.979 180.382 191.898 180.323C193.817 180.264 195.39 180.815 195.413 181.553Z" fill="white"/>
</g>
<path d="M77.9041 102.01C82.0492 96.5792 84.2905 89.9344 84.2816 83.1025C84.2816 65.8468 70.294 51.8605 53.0396 51.8605C35.7852 51.8605 21.7976 65.848 21.7976 83.1025C21.7976 100.357 35.7852 114.344 53.0396 114.344C57.6777 114.35 62.2584 113.319 66.4466 111.326L80.4981 116.032L77.9041 102.01Z" fill="white"/>
<g opacity="0.5">
<path opacity="0.5" d="M53.0396 58.5541C69.1526 58.5541 82.4206 70.7606 84.0983 86.4333C84.2185 85.3271 84.2796 84.2152 84.2816 83.1025C84.2816 65.8468 70.294 51.8605 53.0396 51.8605C35.7852 51.8605 21.7976 65.848 21.7976 83.1025C21.7983 84.2205 21.8583 85.3376 21.9772 86.4493C23.6488 70.768 36.9155 58.5541 53.0396 58.5541Z" fill="white"/>
</g>
<path d="M80.4982 118.132C80.2712 118.132 80.0457 118.095 79.8303 118.023L66.5696 113.586C62.312 115.483 57.7011 116.459 53.0396 116.448C34.6524 116.448 19.6931 101.489 19.6931 83.1013C19.6931 64.714 34.6524 49.756 53.0396 49.756C71.4269 49.756 86.3849 64.7152 86.3849 83.1013C86.406 90.0738 84.2196 96.8741 80.139 102.528L82.567 115.645C82.6231 115.948 82.6118 116.26 82.5337 116.559C82.4557 116.858 82.3129 117.136 82.1155 117.373C81.918 117.61 81.6708 117.801 81.3913 117.932C81.1118 118.064 80.8069 118.132 80.4982 118.132ZM66.4466 109.222C66.6737 109.222 66.8992 109.259 67.1145 109.331L77.7799 112.898L75.8352 102.393C75.782 102.104 75.7898 101.808 75.858 101.522C75.9262 101.237 76.0534 100.969 76.2313 100.736C80.1055 95.6747 82.1961 89.4738 82.1771 83.1C82.1771 67.0338 69.1059 53.9626 53.0396 53.9626C36.9734 53.9626 23.9009 67.0338 23.9009 83.1C23.9009 99.1663 36.9722 112.239 53.0396 112.239C57.3655 112.249 61.6385 111.288 65.5426 109.425C65.8252 109.291 66.134 109.221 66.4466 109.222Z" fill="#000072"/>
<g opacity="0.3">
<path opacity="0.3" d="M78.1095 101.731C68.8574 108.058 56.8059 110.006 45.4579 105.913C32.8676 101.372 24.3671 90.5599 22.1666 78.271C21.9195 79.8692 21.7961 81.484 21.7976 83.1012C21.7976 100.356 35.7852 114.343 53.0396 114.343C57.6777 114.349 62.2584 113.317 66.4466 111.325L80.4981 116.032L77.9041 102.01C77.9742 101.92 78.0406 101.824 78.1095 101.731Z" fill="#000072"/>
</g>
<path d="M64.3249 74.0509C61.2733 71.0005 56.3299 71.5467 53.2746 74.5983L52.7998 75.0731L52.325 74.5983C49.2734 71.5467 44.33 71.0005 41.2747 74.0509C40.549 74.7764 39.9734 75.6378 39.5807 76.5858C39.1879 77.5338 38.9858 78.5499 38.9858 79.5761C38.9858 80.6022 39.1879 81.6183 39.5807 82.5663C39.9734 83.5144 40.549 84.3757 41.2747 85.1013L41.7495 85.576L51.3435 95.17C51.5347 95.3613 51.7617 95.5131 52.0116 95.6166C52.2615 95.7202 52.5293 95.7735 52.7998 95.7735C53.0703 95.7735 53.3381 95.7202 53.588 95.6166C53.8379 95.5131 54.0649 95.3613 54.2561 95.17L63.8501 85.576L64.3261 85.1013C65.7909 83.6355 66.6137 81.648 66.6134 79.5758C66.6132 77.5036 65.79 75.5163 64.3249 74.0509Z" fill="#FF0068"/>
</svg>
